# xmcd
#
# Track frame offsets:
# 150
# 16668
# 34295
# 49615
# 67275
# 85522
# 99170
# 115062
# 129497
# 142730
# 159683
# 173009
# 188415
# 204503
#
# Disc length: 2932 seconds
#
#
# Revision: 1
# Processed by: cddbd v1.5.2PL0 Copyright (c) Steve Scherf et al.
# Submitted via: FreeRIP 2.951 
#
DISCID=a90b720e
DTITLE=Bruno and Marrone - Acústico II - CD 1
DYEAR=2007
DGENRE=Sertanejo
TTITLE0=01 - Pra Não Morrer de Amor
TTITLE1=02 - Um Sonho Louco
TTITLE2=03 - Não Faz Mais Isso Comigo
TTITLE3=04 - Nossa Senhora do Brasil
TTITLE4=05 - Consciência Pesada
TTITLE5=06 - Amor de Balada
TTITLE6=07 - Chorão Apaixonado
TTITLE7=08 - Ficar Por Ficar
TTITLE8=09 - Assim Como o Sol
TTITLE9=10 - Doideira
TTITLE10=11 - Um Tremendo Bobão
TTITLE11=12 - Seja Bem-vinda
TTITLE12=13 - Coisa de Pele
TTITLE13=14 - Castelo de Areia
EXTD=
EXTT0=
EXTT1=
EXTT2=
EXTT3=
EXTT4=
EXTT5=
EXTT6=
EXTT7=
EXTT8=
EXTT9=
EXTT10=
EXTT11=
EXTT12=
EXTT13=
PLAYORDER=
